HIERARCHY
ROOT Hips
{
    OFFSET 0.000 93.594 0.000
    CHANNELS 6 Xposition Yposition Zposition Yrotation Xrotation Zrotation
    JOINT RightHip
    {
        OFFSET -9.500 -1.594 0.000
        CHANNELS 3 Yrotation Xrotation Zrotation
        JOINT RightKnee
        {
            OFFSET 0.000 -42.000 0.000
            CHANNELS 3 Yrotation Xrotation Zrotation
            JOINT RightAnkle
            {
                OFFSET 0.000 -42.000 0.000
                CHANNELS 3 Yrotation Xrotation Zrotation
                End Site
                {
                    OFFSET 0.000 -8.000 17.500
                }
            }
        }
    }
    JOINT LeftHip
    {
        OFFSET 9.500 -1.594 0.000
        CHANNELS 3 Yrotation Xrotation Zrotation
        JOINT LeftKnee
        {
            OFFSET 0.000 -42.000 0.000
            CHANNELS 3 Yrotation Xrotation Zrotation
            JOINT LeftAnkle
            {
                OFFSET 0.000 -42.000 0.000
                CHANNELS 3 Yrotation Xrotation Zrotation
                End Site
                {
                    OFFSET 0.000 -8.000 17.500
                }
            }
        }
    }
    JOINT Chest
    {
        OFFSET 0.000 14.348 0.000
        CHANNELS 3 Yrotation Xrotation Zrotation
        JOINT Chest2
        {
            OFFSET 0.000 9.746 0.000
            CHANNELS 3 Yrotation Xrotation Zrotation
            JOINT Chest3
            {
                OFFSET 0.000 10.149 0.000
                CHANNELS 3 Yrotation Xrotation Zrotation
                JOINT Chest4
                {
                    OFFSET 0.000 9.746 0.000
                    CHANNELS 3 Yrotation Xrotation Zrotation
                    JOINT Neck
                    {
                        OFFSET 0.000 10.417 0.000
                        CHANNELS 3 Yrotation Xrotation Zrotation
                        JOINT Head
                        {
                            OFFSET 0.000 9.000 0.000
                            CHANNELS 3 Yrotation Xrotation Zrotation
                            End Site
                            {
                                OFFSET 0.000 16.000 0.000
                            }
                        }
                    }
                    JOINT RightCollar
                    {
                        OFFSET -3.200 6.945 0.000
                        CHANNELS 3 Yrotation Xrotation Zrotation
                        JOINT RightShoulder
                        {
                            OFFSET -12.800 0.000 0.000
                            CHANNELS 3 Yrotation Xrotation Zrotation
                            JOINT RightElbow
                            {
OFFSET -0 -27 0.000
						CHANNELS 3 Xrotation Yrotation Zrotation
                                JOINT RightWrist
                                {
OFFSET -0 -26 0.000
						CHANNELS 3 Xrotation Yrotation Zrotation
                                    JOINT RightFinger0
                                    {
OFFSET -0.196 -2.56 3.210
						CHANNELS 3 Xrotation Yrotation Zrotation
                                        JOINT RightFinger01
                                        {
OFFSET -0 -3.788 0.000
						CHANNELS 3 Xrotation Yrotation Zrotation
                                            JOINT RightFinger0Nub
                                            {
OFFSET -0 -2.631 0.000
						CHANNELS 3 Xrotation Yrotation Zrotation
                                                End Site
                                                {
OFFSET 0 -2.256 0
                                                }
                                            }
                                        }
                                    }
                                    JOINT RightFinger1
                                    {
OFFSET -0.523 -3.316 2.035
						CHANNELS 3 Xrotation Yrotation Zrotation
                                        JOINT RightFinger11
                                        {
OFFSET 0.094 -5.366 1.028
						CHANNELS 3 Xrotation Yrotation Zrotation
                                            JOINT RightFinger12
                                            {
OFFSET -0 -3.723 0.000
						CHANNELS 3 Xrotation Yrotation Zrotation
                                                JOINT RightFinger1Nub
                                                {
OFFSET -0 -2.111 0.000
						CHANNELS 3 Xrotation Yrotation Zrotation
                                                    End Site
                                                    {
OFFSET 0 -1.857 0
                                                    }
                                                }
                                            }
                                        }
                                    }
                                    JOINT RightFinger2
                                    {
OFFSET -0.532 -3.479 0.778
						CHANNELS 3 Xrotation Yrotation Zrotation
                                        JOINT RightFinger21
                                        {
OFFSET 0.086 -5.322 0.323
						CHANNELS 3 Xrotation Yrotation Zrotation
                                            JOINT RightFinger22
                                            {
OFFSET -0 -4.062 0.000
						CHANNELS 3 Xrotation Yrotation Zrotation
                                                JOINT RightFinger2Nub
                                                {
OFFSET -0 -2.547 0.000
						CHANNELS 3 Xrotation Yrotation Zrotation
                                                    End Site
                                                    {
OFFSET 0 -2.031 0
                                                    }
                                                }
                                            }
                                        }
                                    }
                                    JOINT RightFinger3
                                    {
OFFSET -0.553 -3.461 -0.133
						CHANNELS 3 Xrotation Yrotation Zrotation
                                        JOINT RightFinger31
                                        {
OFFSET 0.023 -4.767 -0.493
						CHANNELS 3 Xrotation Yrotation Zrotation
                                            JOINT RightFinger32
                                            {
OFFSET -0 -3.541 0.000
						CHANNELS 3 Xrotation Yrotation Zrotation
                                                JOINT RightFinger3Nub
                                                {
OFFSET -0 -2.456 0.000
						CHANNELS 3 Xrotation Yrotation Zrotation
                                                    End Site
                                                    {
OFFSET 0 -1.91 0
                                                    }
                                                }
                                            }
                                        }
                                    }
                                    JOINT RightFinger4
                                    {
OFFSET -0.483 -3.251 -1.236
						CHANNELS 3 Xrotation Yrotation Zrotation
                                        JOINT RightFinger41
                                        {
OFFSET 0.023 -4.259 -1.122
						CHANNELS 3 Xrotation Yrotation Zrotation
                                            JOINT RightFinger42
                                            {
OFFSET -0 -2.835 0.000
						CHANNELS 3 Xrotation Yrotation Zrotation
                                                JOINT RightFinger4Nub
                                                {
OFFSET -0 -1.792 0.000
						CHANNELS 3 Xrotation Yrotation Zrotation
                                                    End Site
                                                    {
OFFSET 0 -1.692 0
                                                    }
                                                }
                                            }
                                        }
                                    }
                                }
                            }
                        }
                    }
                    JOINT LeftCollar
                    {
                        OFFSET 3.200 6.945 0.000
                        CHANNELS 3 Yrotation Xrotation Zrotation
                        JOINT LeftShoulder
                        {
                            OFFSET 12.800 0.000 0.000
                            CHANNELS 3 Yrotation Xrotation Zrotation
                            JOINT LeftElbow
                            {
OFFSET -0 -27 0.000
						CHANNELS 3 Xrotation Yrotation Zrotation
                                JOINT LeftWrist
                                {
OFFSET -0 -26 0.000
						CHANNELS 3 Xrotation Yrotation Zrotation
                                    JOINT LeftFinger0
                                    {
OFFSET -0.196 -2.56 3.210
						CHANNELS 3 Xrotation Yrotation Zrotation
                                        JOINT LeftFinger01
                                        {
OFFSET -0 -3.788 0.000
						CHANNELS 3 Xrotation Yrotation Zrotation
                                            JOINT LeftFinger0Nub
                                            {
OFFSET -0 -2.631 0.000
						CHANNELS 3 Xrotation Yrotation Zrotation
                                                End Site
                                                {
OFFSET 0 -2.256 0
                                                }
                                            }
                                        }
                                    }
                                    JOINT LeftFinger1
                                    {
OFFSET -0.523 -3.316 2.035
						CHANNELS 3 Xrotation Yrotation Zrotation
                                        JOINT LeftFinger11
                                        {
OFFSET 0.094 -5.366 1.028
						CHANNELS 3 Xrotation Yrotation Zrotation
                                            JOINT LeftFinger12
                                            {
OFFSET -0 -3.723 0.000
						CHANNELS 3 Xrotation Yrotation Zrotation
                                                JOINT LeftFinger1Nub
                                                {
OFFSET -0 -2.111 0.000
						CHANNELS 3 Xrotation Yrotation Zrotation
                                                    End Site
                                                    {
OFFSET 0 -1.857 0
                                                    }
                                                }
                                            }
                                        }
                                    }
                                    JOINT LeftFinger2
                                    {
OFFSET -0.532 -3.479 0.778
						CHANNELS 3 Xrotation Yrotation Zrotation
                                        JOINT LeftFinger21
                                        {
OFFSET 0.086 -5.322 0.323
						CHANNELS 3 Xrotation Yrotation Zrotation
                                            JOINT LeftFinger22
                                            {
OFFSET -0 -4.062 0.000
						CHANNELS 3 Xrotation Yrotation Zrotation
                                                JOINT LeftFinger2Nub
                                                {
OFFSET -0 -2.547 0.000
						CHANNELS 3 Xrotation Yrotation Zrotation
                                                    End Site
                                                    {
OFFSET 0 -2.031 0
                                                    }
                                                }
                                            }
                                        }
                                    }
                                    JOINT LeftFinger3
                                    {
OFFSET -0.553 -3.461 -0.133
						CHANNELS 3 Xrotation Yrotation Zrotation
                                        JOINT LeftFinger31
                                        {
OFFSET 0.023 -4.767 -0.493
						CHANNELS 3 Xrotation Yrotation Zrotation
                                            JOINT LeftFinger32
                                            {
OFFSET -0 -3.541 0.000
						CHANNELS 3 Xrotation Yrotation Zrotation
                                                JOINT LeftFinger3Nub
                                                {
OFFSET -0 -2.456 0.000
						CHANNELS 3 Xrotation Yrotation Zrotation
                                                    End Site
                                                    {
OFFSET 0 -1.91 0
                                                    }
                                                }
                                            }
                                        }
                                    }
                                    JOINT LeftFinger4
                                    {
OFFSET -0.483 -3.251 -1.236
						CHANNELS 3 Xrotation Yrotation Zrotation
                                        JOINT LeftFinger41
                                        {
OFFSET 0.023 -4.259 -1.122
						CHANNELS 3 Xrotation Yrotation Zrotation
                                            JOINT LeftFinger42
                                            {
OFFSET -0 -2.835 0.000
						CHANNELS 3 Xrotation Yrotation Zrotation
                                                JOINT LeftFinger4Nub
                                                {
OFFSET -0 -1.792 0.000
						CHANNELS 3 Xrotation Yrotation Zrotation
                                                    End Site
                                                    {
OFFSET 0 -1.692 0
                                                    }
                                                }
                                            }
                                        }
                                    }
                                }
                            }
                        }
                    }
                }
            }
        }
    }
}
MOTION

Frames: 13
Frame Time: 0.017
-22.23 92.31 28.94 150.88 0.84 -5.75 -6.45 -4.15 -2.73 -0.00 17.83 -0.00 -23.83 -9.89 11.60 -12.91 -16.25 14.14 0.00 31.49 -0.00 -1.14 -14.34 -7.64 -2.74 -3.42 3.55 -0.70 -0.85 0.87 -1.20 -1.40 1.45 0.00 0.00 0.00 -0.00 0.00 0.00 -0.00 -0.00 0.00 11.50 1.01 1.73 4.45 -11.45 -16.96 -15.23 30.97 7.57 -18.51 9.55 6.71 -47.3 -0 24.16 15.93 -0 -5.66 5.36 -0 0.00 0 -0 0.00 -15 -0 19.47 0 -0 11.54 0 -0 5.77 0 -0 0.00 0 -0 8.49 0 -0 8.49 0 -0 8.49 0 -0 0.00 15 -0 19.50 0 -0 19.50 0 -0 19.50 0 -0 0.00 25 -0 -26.70 0 -0 -26.70 0 -0 -26.70 3.15 -1.58 -3.74 -16.09 -8.49 24.95 -34.64 -24.45 -29.21 -8.23 12.75 -9.83 -8.03 0 -31.57 -6.01 0 12.65 17.73 0 0.00 0.00 0 0.00 -15.00 0 -13.56 0.00 0 -5.00 0.00 0 -2.50 0.00 0 0.00 0.00 0 -11.55 0.00 0 -11.55 0.00 0 -11.55 0.00 0 0.00 15.00 0 -15.23 0.00 0 -15.23 0.00 0 -15.23 0.00 0 0.00 25.00 0 -21.90 0.00 0 -21.90 0.00 0 -21.90 
-22.18 92.30 28.98 150.83 0.85 -5.76 -6.46 -4.13 -2.68 -0.00 17.74 -0.00 -23.77 -9.86 11.53 -12.93 -16.30 14.20 0.00 31.62 0.00 -1.12 -14.41 -7.68 -2.74 -3.46 3.51 -0.70 -0.86 0.86 -1.20 -1.41 1.44 0.00 0.00 0.00 -0.00 0.00 -0.00 -0.00 -0.00 0.00 11.56 1.06 1.82 4.20 -11.48 -16.87 -15.29 31.22 7.60 -18.29 7.91 7.28 -47.18 -0 23.79 16.18 -0 -6.03 5.42 -0 0.00 0 -0 0.00 -15 -0 18.88 0 -0 15.04 0 -0 7.52 0 -0 0.00 0 -0 9.79 0 -0 9.79 0 -0 9.79 0 -0 0.00 15 -0 20.95 0 -0 20.95 0 -0 20.95 0 -0 0.00 25 -0 -28.30 0 -0 -28.30 0 -0 -28.30 3.14 -1.57 -3.76 -15.95 -8.30 24.83 -34.31 -25.43 -29.08 -7.61 12.73 -10.70 -8.07 0 -31.46 -6.10 0 12.75 17.75 0 0.00 0.00 0 0.00 -15.00 0 -15.10 0.00 0 -5.46 0.00 0 -2.73 0.00 0 0.00 0.00 0 -12.39 0.00 0 -12.39 0.00 0 -12.39 0.00 0 0.00 15.00 0 -16.77 0.00 0 -16.77 0.00 0 -16.77 0.00 0 0.00 25.00 0 -22.57 0.00 0 -22.57 0.00 0 -22.57 
-22.18 92.29 29.06 150.83 0.85 -5.76 -6.49 -4.21 -2.65 0.00 17.80 0.00 -23.74 -9.87 11.49 -12.97 -16.32 14.25 -0.00 31.60 -0.00 -1.10 -14.36 -7.73 -2.74 -3.46 3.51 -0.70 -0.86 0.86 -1.20 -1.41 1.44 0.00 0.00 0.00 -0.00 0.00 -0.00 -0.00 -0.00 0.00 11.56 1.06 1.82 4.20 -11.48 -16.87 -15.29 31.22 7.60 -18.29 7.91 7.28 -47.18 -0 23.79 16.18 -0 -6.03 5.42 -0 0.00 0 -0 0.00 -15 -0 18.88 0 -0 15.04 0 -0 7.52 0 -0 0.00 0 -0 9.79 0 -0 9.79 0 -0 9.79 0 -0 0.00 15 -0 20.95 0 -0 20.95 0 -0 20.95 0 -0 0.00 25 -0 -28.30 0 -0 -28.30 0 -0 -28.30 3.12 0.92 -2.24 -20.17 -9.56 29.28 -33.58 -16.06 -31.72 -6.79 9.46 -9.51 -8.87 0 -37.15 -7.69 0 7.07 18.06 0 0.00 0.00 0 0.00 -15.00 0 -25.05 0.00 0 -2.65 0.00 0 -1.32 0.00 0 0.00 0.00 0 -15.75 0.00 0 -15.75 0.00 0 -15.75 0.00 0 0.00 15.00 0 -24.71 0.00 0 -24.71 0.00 0 -24.71 0.00 0 0.00 25.00 0 -24.75 0.00 0 -24.75 0.00 0 -24.75 
-22.18 92.28 29.14 150.83 0.85 -5.76 -6.50 -4.31 -2.62 -0.00 17.93 0.00 -23.73 -9.90 11.47 -13.00 -16.35 14.28 -0.00 31.59 -0.00 -1.09 -14.32 -7.76 -2.74 -3.46 3.51 -0.70 -0.86 0.86 -1.20 -1.41 1.44 0.00 0.00 0.00 -0.00 0.00 -0.00 -0.00 -0.00 0.00 11.56 1.06 1.82 4.20 -11.48 -16.87 -15.29 31.22 7.60 -18.29 7.91 7.28 -47.18 -0 23.79 16.18 -0 -6.03 5.42 -0 0.00 0 -0 0.00 -15 -0 18.88 0 -0 15.04 0 -0 7.52 0 -0 0.00 0 -0 9.79 0 -0 9.79 0 -0 9.79 0 -0 0.00 15 -0 20.95 0 -0 20.95 0 -0 20.95 0 -0 0.00 25 -0 -28.30 0 -0 -28.30 0 -0 -28.30 3.11 0.80 -2.22 -20.03 -9.88 29.34 -34.32 -15.24 -32.03 -5.41 9.13 -9.80 -9.19 0 -37.17 -8.34 0 7.05 19.24 0 0.00 0.00 0 0.00 -15.00 0 -24.79 0.00 0 -2.54 0.00 0 -1.27 0.00 0 0.00 0.00 0 -15.55 0.00 0 -15.55 0.00 0 -15.55 0.00 0 0.00 15.00 0 -24.53 0.00 0 -24.53 0.00 0 -24.53 0.00 0 0.00 25.00 0 -24.62 0.00 0 -24.62 0.00 0 -24.62 
-22.32 92.29 29.22 150.83 0.85 -5.76 -7.44 -4.47 -2.75 -0.00 17.92 -0.00 -22.45 -9.74 11.27 -12.93 -16.44 14.24 0.00 31.57 0.00 -1.09 -14.45 -7.81 -2.24 -2.51 4.51 -0.57 -0.62 1.12 -0.99 -1.01 1.86 0.00 0.00 0.00 -0.00 -0.00 0.00 -0.00 -0.00 -0.00 10.71 1.84 0.92 0.97 -8.91 -21.84 -27.4 25.65 17.44 -14.96 14.52 7.53 -47.92 -0 25.53 14.71 -0 -4.29 -0.55 -0 0.00 0 -0 0.00 -15 -0 15.96 0 -0 13.50 0 -0 6.75 0 -0 0.00 0 -0 -0.28 0 -0 -0.28 0 -0 -0.28 0 -0 0.00 15 -0 12.12 0 -0 12.12 0 -0 12.12 0 -0 0.00 25 -0 -27.53 0 -0 -27.53 0 -0 -27.53 2.43 -0.93 -3.98 -19.77 -10.21 29.31 -35.17 -14.52 -32.33 -4.00 8.84 -10.09 -9.53 0 -37.10 -9.02 0 7.11 20.47 0 0.00 0.00 0 0.00 -15.00 0 -24.52 0.00 0 -2.43 0.00 0 -1.22 0.00 0 0.00 0.00 0 -15.32 0.00 0 -15.32 0.00 0 -15.32 0.00 0 0.00 15.00 0 -24.34 0.00 0 -24.34 0.00 0 -24.34 0.00 0 0.00 25.00 0 -24.44 0.00 0 -24.44 0.00 0 -24.44 
-22.44 92.29 29.29 150.83 0.85 -5.76 -7.39 -4.54 -2.78 -0.00 17.90 -0.00 -22.49 -9.65 11.27 -12.93 -16.57 14.21 0.00 31.65 0.00 -1.12 -14.39 -7.76 -2.24 -2.59 4.47 -0.57 -0.64 1.11 -0.99 -1.04 1.84 0.00 0.00 -0.00 -0.00 0.00 -0.00 -0.00 -0.00 0.00 10.78 1.78 0.97 1.02 -9.07 -21.74 -27.56 25.47 17.02 -14.56 14.78 7.12 -48.1 -0 25.55 14.33 -0 -4.27 1.48 -0 0.00 0 -0 0.00 -15 -0 16.02 0 -0 13.53 0 -0 6.76 0 -0 0.00 0 -0 0.24 0 -0 0.24 0 -0 0.24 0 -0 0.00 15 -0 12.51 0 -0 12.51 0 -0 12.51 0 -0 0.00 25 -0 -26.83 0 -0 -26.83 0 -0 -26.83 2.43 -0.85 -3.91 -19.54 -10.56 29.27 -35.89 -13.78 -32.55 -2.65 8.42 -10.37 -9.87 0 -36.88 -9.70 0 7.34 21.68 0 0.00 0.00 0 0.00 -15.00 0 -24.11 0.00 0 -2.33 0.00 0 -1.16 0.00 0 0.00 0.00 0 -14.99 0.00 0 -14.99 0.00 0 -14.99 0.00 0 0.00 15.00 0 -24.08 0.00 0 -24.08 0.00 0 -24.08 0.00 0 0.00 25.00 0 -24.22 0.00 0 -24.22 0.00 0 -24.22 
-22.55 92.29 29.33 151.44 1.18 -5.24 -7.92 -5.17 -3.31 -0.00 18.52 -0.00 -22.57 -9.92 11.46 -13.41 -16.92 13.70 0.00 31.27 0.00 -1.14 -14.05 -7.71 -2.59 -2.86 4.12 -0.66 -0.71 1.02 -1.14 -1.15 1.70 0.00 0.00 0.00 0.00 0.00 -0.00 -0.00 -0.00 0.00 10.82 1.73 1.01 1.06 -9.25 -21.57 -27.59 25.21 16.55 -14.29 14.98 6.91 -48.3 -0 25.63 13.94 -0 -4.19 2.61 -0 0.00 0 -0 0.00 -15 -0 16.83 0 -0 12.83 0 -0 6.41 0 -0 0.00 0 -0 0.28 0 -0 0.28 0 -0 0.28 0 -0 0.00 15 -0 12.79 0 -0 12.79 0 -0 12.79 0 -0 0.00 25 -0 -26.42 0 -0 -26.42 0 -0 -26.42 2.39 -0.77 -3.86 -19.23 -10.90 29.19 -36.44 -13.03 -32.72 11.61 0.03 -20.96 -12.66 0 -30.32 -15.27 0 13.90 18.30 0 0.00 0.00 0 0.00 -15.00 0 -6.79 0.00 0 -1.68 0.00 0 -0.84 0.00 0 0.00 0.00 0 -5.32 0.00 0 -5.32 0.00 0 -5.32 0.00 0 0.00 15.00 0 -13.85 0.00 0 -13.85 0.00 0 -13.85 0.00 0 0.00 25.00 0 -15.45 0.00 0 -15.45 0.00 0 -15.45 
-22.63 92.29 29.37 151.53 1.16 -5.25 -7.95 -5.17 -3.33 -0.00 18.51 -0.00 -22.63 -9.86 11.49 -13.49 -16.98 13.68 0.00 31.32 -0.00 -1.18 -14.00 -7.68 -2.63 -2.92 4.07 -0.67 -0.72 1.01 -1.15 -1.18 1.68 0.00 0.00 0.00 -0.00 -0.00 -0.00 -0.00 -0.00 0.00 10.84 1.71 1.05 1.06 -9.47 -21.37 -27.49 24.9 16.09 -14.11 15.07 6.85 -48.28 -0 25.62 13.98 -0 -4.20 2.84 -0 0.00 0 -0 0.00 -15 -0 17.47 0 -0 12.56 0 -0 6.28 0 -0 0.00 0 -0 0.45 0 -0 0.45 0 -0 0.45 0 -0 0.00 15 -0 13.10 0 -0 13.10 0 -0 13.10 0 -0 0.00 25 -0 -26.30 0 -0 -26.30 0 -0 -26.30 2.44 -0.69 -3.82 -19.02 -11.27 29.09 -36.83 -12.3 -32.86 11.69 -0.54 -21.56 -12.72 0 -29.79 -15.40 0 14.43 18.37 0 0.00 0.00 0 0.00 -15.00 0 -7.02 0.00 0 -0.77 0.00 0 -0.39 0.00 0 0.00 0.00 0 -4.88 0.00 0 -4.88 0.00 0 -4.88 0.00 0 0.00 15.00 0 -13.49 0.00 0 -13.49 0.00 0 -13.49 0.00 0 0.00 25.00 0 -15.57 0.00 0 -15.57 0.00 0 -15.57 
-22.70 92.28 29.41 151.72 1.07 -5.32 -8.10 -5.04 -3.29 -0.00 18.42 -0.00 -22.68 -9.80 11.49 -13.69 -16.98 13.73 0.00 31.40 0.00 -1.21 -13.97 -7.66 -2.73 -2.93 4.06 -0.70 -0.73 1.00 -1.19 -1.18 1.67 0.00 0.00 -0.00 0.00 0.00 -0.00 -0.00 -0.00 0.00 10.90 1.69 1.10 0.90 -9.77 -21.16 -27.28 24.68 15.64 -13.99 15.01 6.83 -48.21 -0 25.56 14.12 -0 -4.26 2.9 -0 0.00 0 -0 0.00 -15 -0 17.18 0 -0 13.53 0 -0 6.77 0 -0 0.00 0 -0 0.74 0 -0 0.74 0 -0 0.74 0 -0 0.00 15 -0 13.56 0 -0 13.56 0 -0 13.56 0 -0 0.00 25 -0 -26.37 0 -0 -26.37 0 -0 -26.37 2.38 -0.58 -3.74 -18.71 -11.71 28.93 -37.08 -11.68 -32.99 7.28 2.58 -22.79 -10.37 0 -30.74 -10.69 0 13.47 13.65 0 0.00 0.00 0 0.00 -15.00 0 -9.89 0.00 0 -0.23 0.00 0 -0.12 0.00 0 0.00 0.00 0 -6.35 0.00 0 -6.35 0.00 0 -6.35 0.00 0 0.00 15.00 0 -15.23 0.00 0 -15.23 0.00 0 -15.23 0.00 0 0.00 25.00 0 -17.07 0.00 0 -17.07 0.00 0 -17.07 
-22.74 92.28 29.46 151.75 1.06 -5.33 -8.08 -5.07 -3.29 -0.00 18.45 -0.00 -22.70 -9.79 11.51 -13.72 -17.02 13.73 0.00 31.42 0.00 -1.20 -13.92 -7.65 -2.72 -3.00 4.03 -0.69 -0.75 0.99 -1.19 -1.21 1.66 0.00 0.00 -0.00 -0.00 -0.00 0.00 -0.00 -0.00 0.00 10.98 1.68 1.16 0.70 -10.07 -20.96 -26.95 24.46 15.19 -13.87 14.88 6.83 -48.16 -0 25.46 14.22 -0 -4.36 2.99 -0 0.00 0 -0 0.00 -15 -0 17.20 0 -0 14.40 0 -0 7.20 0 -0 0.00 0 -0 1.08 0 -0 1.08 0 -0 1.08 0 -0 0.00 15 -0 14.10 0 -0 14.10 0 -0 14.10 0 -0 0.00 25 -0 -26.56 0 -0 -26.56 0 -0 -26.56 2.33 -0.45 -3.67 -18.45 -12.16 28.77 -37.28 -11.24 -33.09 7.01 3.11 -22.80 -9.92 0 -31.16 -9.80 0 13.06 12.92 0 0.00 0.00 0 0.00 -15.00 0 -9.95 0.00 0 -0.09 0.00 0 -0.04 0.00 0 0.00 0.00 0 -6.39 0.00 0 -6.39 0.00 0 -6.39 0.00 0 0.00 15.00 0 -15.41 0.00 0 -15.41 0.00 0 -15.41 0.00 0 0.00 25.00 0 -17.25 0.00 0 -17.25 0.00 0 -17.25 
-22.77 92.28 29.49 151.76 1.06 -5.34 -8.04 -5.11 -3.29 -0.00 18.49 -0.00 -22.77 -9.78 11.52 -13.75 -17.06 13.73 -0.00 31.45 -0.00 -1.18 -13.89 -7.65 -2.71 -3.10 4.00 -0.69 -0.77 0.99 -1.19 -1.25 1.64 0.00 0.00 0.00 -0.00 -0.00 0.00 -0.00 -0.00 0.00 11.07 1.67 1.22 0.50 -10.39 -20.72 -26.43 24.28 14.68 -13.74 14.71 6.85 -48.16 -0 25.79 14.22 -0 -4.03 3.18 -0 0.00 0 -0 0.00 -15 -0 17.49 0 -0 14.67 0 -0 7.33 0 -0 0.00 0 -0 1.43 0 -0 1.43 0 -0 1.43 0 -0 0.00 15 -0 14.62 0 -0 14.62 0 -0 14.62 0 -0 0.00 25 -0 -26.85 0 -0 -26.85 0 -0 -26.85 2.32 -0.35 -3.63 -18.28 -12.50 28.59 -37.04 -11.62 -33.20 5.98 3.85 -22.67 -9.96 0 -31.01 -9.89 0 13.20 13.33 0 0.00 0.00 0 0.00 -15.00 0 -7.55 0.00 0 -2.18 0.00 0 -1.09 0.00 0 0.00 0.00 0 -6.44 0.00 0 -6.44 0.00 0 -6.44 0.00 0 0.00 15.00 0 -15.54 0.00 0 -15.54 0.00 0 -15.54 0.00 0 0.00 25.00 0 -16.57 0.00 0 -16.57 0.00 0 -16.57 
-22.79 92.28 29.52 151.77 1.06 -5.36 -7.98 -5.11 -3.26 0.00 18.49 0.00 -22.84 -9.78 11.52 -13.78 -17.07 13.75 0.00 31.45 0.00 -1.19 -13.86 -7.65 -2.71 -3.18 3.96 -0.69 -0.79 0.98 -1.19 -1.29 1.63 0.00 0.00 0.00 0.00 0.00 -0.00 -0.00 -0.00 0.00 11.15 1.67 1.28 0.34 -10.70 -20.44 -25.88 24.21 14.13 -13.58 14.51 6.88 -48.19 -0 26.08 14.15 -0 -3.74 3.3 -0 0.00 0 -0 0.00 -15 -0 17.84 0 -0 14.78 0 -0 7.39 0 -0 0.00 0 -0 1.74 0 -0 1.74 0 -0 1.74 0 -0 0.00 15 -0 15.05 0 -0 15.05 0 -0 15.05 0 -0 0.00 25 -0 -27.10 0 -0 -27.10 0 -0 -27.10 2.32 -0.26 -3.60 -18.15 -12.75 28.4 -36.84 -11.94 -33.22 5.10 4.27 -22.53 -10.04 0 -30.78 -10.03 0 13.43 13.74 0 0.00 0.00 0 0.00 -15.00 0 -7.45 0.00 0 -2.20 0.00 0 -1.10 0.00 0 0.00 0.00 0 -6.47 0.00 0 -6.47 0.00 0 -6.47 0.00 0 0.00 15.00 0 -15.61 0.00 0 -15.61 0.00 0 -15.61 0.00 0 0.00 25.00 0 -16.62 0.00 0 -16.62 0.00 0 -16.62 
-22.79 92.28 29.57 151.79 1.04 -5.38 -7.94 -5.12 -3.22 -0.00 18.51 -0.00 -22.93 -9.76 11.51 -13.83 -17.08 13.79 -0.00 31.46 -0.00 -1.20 -13.82 -7.66 -2.73 -3.22 3.93 -0.70 -0.80 0.97 -1.20 -1.31 1.61 0.00 0.00 -0.00 0.00 -0.00 0.00 -0.00 -0.00 0.00 11.16 1.75 1.37 0.36 -11.07 -20.19 -25.36 24.25 13.55 -13.4 14.4 6.88 -48.23 -0 25.82 14.07 -0 -4.00 4.23 -0 0.00 0 -0 0.00 -15 -0 18.20 0 -0 14.67 0 -0 7.34 0 -0 0.00 0 -0 2.01 0 -0 2.01 0 -0 2.01 0 -0 0.00 15 -0 15.41 0 -0 15.41 0 -0 15.41 0 -0 0.00 25 -0 -27.17 0 -0 -27.17 0 -0 -27.17 2.32 -0.24 -3.74 -18.19 -12.61 28.6 -37.32 -11.27 -33.09 5.20 4.15 -22.57 -10.44 0 -30.44 -10.84 0 13.77 14.93 0 0.00 0.00 0 0.00 -15.00 0 -8.00 0.00 0 -1.67 0.00 0 -0.84 0.00 0 0.00 0.00 0 -6.75 0.00 0 -6.75 0.00 0 -6.75 0.00 0 0.00 15.00 0 -15.62 0.00 0 -15.62 0.00 0 -15.62 0.00 0 0.00 25.00 0 -16.64 0.00 0 -16.64 0.00 0 -16.64 
